<?xml version="1.0" standalone="no"?>
<!DOCTYPE svg PUBLIC "-//W3C//DTD SVG 20010904//EN"
 "http://www.w3.org/TR/2001/REC-SVG-20010904/DTD/svg10.dtd">
<svg version="1.0" xmlns="http://www.w3.org/2000/svg"
 width="200.000000pt" height="200.000000pt" viewBox="0 0 200.000000 200.000000"
 preserveAspectRatio="xMidYMid meet">

<g transform="translate(0.000000,200.000000) scale(0.100000,-0.100000)"
fill="#000000" stroke="none">
<path d="M0 1000 l0 -1000 1000 0 1000 0 0 1000 0 1000 -1000 0 -1000 0 0
-1000z m1185 735 c33 -8 96 -33 140 -54 453 -223 552 -823 194 -1182 -62 -62
-179 -138 -254 -164 -27 -10 -58 -26 -67 -37 -26 -29 -67 -37 -200 -37 -136 0
-193 11 -207 38 -6 10 -32 26 -58 36 -170 63 -343 230 -410 396 -60 148 -75
334 -39 468 77 285 298 493 581 547 84 16 235 11 320 -11z"/>
<path d="M865 1695 c-250 -55 -443 -229 -522 -470 -33 -102 -38 -272 -10 -375
51 -186 179 -346 349 -435 38 -20 71 -35 74 -33 2 3 -6 75 -17 162 -18 132
-19 162 -8 188 13 31 28 40 232 131 50 23 57 30 57 54 0 15 7 111 15 213 13
167 17 187 36 203 12 9 25 17 29 17 4 0 17 -8 29 -17 20 -17 22 -32 32 -318
12 -322 16 -345 64 -345 16 0 37 15 62 42 106 118 117 124 154 87 14 -14 18
-27 13 -42 -4 -12 -51 -100 -105 -196 -55 -95 -99 -175 -99 -178 0 -2 31 12
69 32 169 89 297 250 348 435 28 102 23 273 -10 375 -110 337 -459 544 -792
470z"/>
</g>
</svg>
